<svg xmlns="http://www.w3.org/2000/svg" version="1.1" xmlns:xlink="http://www.w3.org/1999/xlink" viewBox="0 0 200 200"><rect width="200" height="200" fill="url('#gradient')"></rect><defs><linearGradient id="gradient" gradientTransform="rotate(45 0.5 0.5)"><stop offset="0%" stop-color="#dee90b"></stop><stop offset="100%" stop-color="#d9e241"></stop></linearGradient></defs><g><g fill="#1b3855" transform="matrix(5.776044568245125,0,0,5.776044568245125,19.165112915228335,143.00394169294734)" stroke="#0e5278" stroke-width="0.2"><path d="M9.98 0L9.15-2.66L4.45-2.66L3.63 0L-0.03 0L5.19-14.22L8.41-14.22L13.66 0L9.98 0ZM6.80-10.23L5.27-5.30L8.33-5.30L6.80-10.23ZM16.63-10.57L18.27-3.92L19.94-10.57L23.41-10.57L19.96 0L16.60 0L13.15-10.57L16.63-10.57ZM27.86-10.57L27.86 0L24.56 0L24.56-10.57L27.86-10.57ZM24.37-13.29L24.37-13.29Q24.37-13.99 24.87-14.44Q25.38-14.89 26.19-14.89Q27.00-14.89 27.51-14.44Q28.02-13.99 28.02-13.29Q28.02-12.59 27.51-12.14Q27.00-11.69 26.19-11.69Q25.38-11.69 24.87-12.14Q24.37-12.59 24.37-13.29Z"></path></g></g></svg>